<?xml version='1.0' encoding='utf-8'?>
<svg xmlns="http://www.w3.org/2000/svg" fill="none" viewBox="8.027500 8.537616 152.015500 32.924768">
  <g>
    <path fill="#fff"
      d="M86.2371 40.9931V9.0069H97.615c6.809 0 10.921 3.1072 10.921 8.7276v1.1424c0 2.239-1.005 3.9754-2.742 5.2092 2.651 1.3251 4.113 3.5641 4.113 6.58v1.1424c0 5.9402-4.524 9.1846-10.7841 9.1846H86.2371Zm10.8296-25.7718h-3.7013v6.5343h3.7013c2.7873 0 4.1583-1.188 4.1583-2.9701v-.7311c0-1.7364-1.371-2.8331-4.1583-2.8331Zm1.3708 12.2919h-5.0721v7.2654h5.0721c2.7875 0 4.1585-1.3251 4.1585-3.29v-.7311c0-2.0106-1.371-3.2443-4.1585-3.2443ZM111.833 40.9931V9.0069h21.248v6.2144h-14.119v6.1688h11.834v6.2144h-11.834v7.1741h14.119v6.2145h-21.248ZM160.057 15.2213h-8.819v25.7718h-7.128V15.2213h-8.865V9.0069h24.812v6.2144Z" />
    <path fill="url(#b)"
      d="M48.5273 8.5498c7.6309 0 11.7894 4.3867 12.1551 10.9209h-7.0373c-.3199-3.2441-1.8276-4.7063-4.9804-4.7064-3.4271 0-5.3004 2.559-5.3005 6.4886v7.54c.0001 3.8839 1.8734 6.4425 5.3005 6.4425 3.1529 0 4.7062-1.4164 4.9804-4.7064h7.0373c-.2742 6.9456-4.798 10.9209-11.515 10.921-7.9509 0-13.1145-4.3869-13.1145-12.3378v-8.1786c0-7.9508 5.1634-12.3837 12.4744-12.3838Z" />
    <path fill="url(#c)"
      d="M37.7472 40.9933h-7.768l-1.7368-5.6205h-3.2255c-1.1584-1.2778-1.4421-3.8898-1.506-5.4636.5485.5383 1.4699 1.1978 2.6893 1.1978 1.0934-.0008 2.6746-1.0041 2.6746-3.1933-.0001-4.0011-2.3619-2.9126-5.9426-9.6652-3.5804 6.7525-5.9418 5.6638-5.9419 9.6652 0 2.1893 1.5826 3.1932 2.6746 3.1933 1.2191.0007 2.1408-.6598 2.6893-1.1978-.0639 1.5738-.3477 4.1858-1.5061 5.4636h-3.572l-1.7368 5.6205H8L19.0583 9.0072h7.6306l11.0583 31.9861Z" />
    <path fill="url(#d)"
      d="M83.506 15.2217H69.3861v6.1686h11.835v6.2145h-11.835v7.1739H83.506v6.2146H62.2581V9.0072H83.506v6.2145Z" />
  </g>
  <defs>
    <linearGradient id="b" x1="8.6577" x2="25.6795" y1="37.2628" y2="-7.1036" gradientUnits="userSpaceOnUse">
      <stop stop-color="#5EE2A2" />
      <stop offset=".51" stop-color="#87EB7A" />
      <stop offset="1" stop-color="#B4F650" />
    </linearGradient>
    <linearGradient id="c" x1="8.6577" x2="25.6795" y1="37.2628" y2="-7.1036" gradientUnits="userSpaceOnUse">
      <stop stop-color="#5EE2A2" />
      <stop offset=".51" stop-color="#87EB7A" />
      <stop offset="1" stop-color="#B4F650" />
    </linearGradient>
    <linearGradient id="d" x1="8.6577" x2="25.6795" y1="37.2628" y2="-7.1036" gradientUnits="userSpaceOnUse">
      <stop stop-color="#5EE2A2" />
      <stop offset=".51" stop-color="#87EB7A" />
      <stop offset="1" stop-color="#B4F650" />
    </linearGradient>

  </defs>
</svg>