<svg width="123" height="32" viewBox="0 0 123 32" fill="none" xmlns="http://www.w3.org/2000/svg">
<path d="M19.8619 15.998C19.3669 18.794 18.6459 20.233 14.9859 20.233H14.9039L18.7489 25.441C18.9239 25.669 18.7489 25.99 18.4809 25.99H13.9449C13.4809 25.99 13.2749 25.896 13.0589 25.565L9.71894 20.481H5.87394L5.00794 25.451C4.95694 25.803 4.71994 26 4.33794 26H0.503944C0.132944 26 -0.0430557 25.803 0.00894429 25.451L2.88494 9.082C2.96694 8.73 3.18394 8.533 3.55494 8.533H17.0579C19.5119 8.533 20.5939 9.383 20.5939 11.329C20.5939 11.702 20.5629 12.105 20.5009 12.529L19.8719 16H19.8619V15.998ZM7.21394 12.551L6.52394 16.568H13.1209C14.5529 16.568 14.8109 16.247 15.0269 15.046L15.2029 13.979C15.2539 13.699 15.2849 13.482 15.2849 13.306C15.2849 12.675 14.9349 12.561 13.8219 12.561H7.21394V12.551ZM34.8079 23.029H26.4579L25.0979 25.472C24.9219 25.824 24.6439 25.99 24.2319 25.99H20.0159C19.6959 25.99 19.5619 25.741 19.7689 25.42L29.4269 9.061C29.6229 8.709 29.8909 8.544 30.3439 8.544H35.9939C36.4159 8.544 36.6219 8.72 36.6839 9.061L40.6419 25.421C40.6939 25.741 40.5179 25.99 40.2189 25.99H36.0339C35.5809 25.99 35.3949 25.814 35.3129 25.472L34.7969 23.028H34.8069L34.8079 23.029ZM28.6639 19.115H33.9729L32.4779 12.561L28.6739 19.115H28.6639ZM47.6399 25.451C47.5889 25.803 47.3519 26 46.9699 26H43.1259C42.7549 26 42.5789 25.803 42.6309 25.451L45.5069 9.092C45.5889 8.74 45.8059 8.544 46.1769 8.544H50.0219C50.3919 8.544 50.5889 8.74 50.5169 9.092L47.6399 25.451ZM71.1439 15.915C71.5879 15.915 71.6909 16.123 71.6079 16.547L70.0519 25.441C69.9999 25.793 69.7839 25.99 69.4119 25.99H63.1249C62.7229 25.99 62.4849 25.865 62.4029 25.534L57.9709 12.52L55.6929 25.43C55.6409 25.783 55.4039 25.98 55.0529 25.98H51.5799C51.2089 25.98 51.0329 25.783 51.0849 25.43L53.9609 9.072C54.0429 8.72 54.2599 8.533 54.6309 8.533H60.9189C61.3209 8.533 61.5479 8.647 61.6399 8.979L66.1449 22.231L67.1749 16.423C67.2479 16.091 67.4029 15.915 67.7319 15.915H71.1549H71.1439ZM83.2449 15.926C83.0689 15.926 82.9049 15.946 82.7399 15.978C82.2139 16.091 81.8119 16.537 81.7199 17.075L80.8529 22.003C80.7738 22.3985 80.7326 22.8007 80.7299 23.204C80.7299 25.151 81.8939 26 84.3169 26H94.5729C98.3659 26 98.7889 25.027 99.3049 22.086L100.315 16.35C100.397 15.998 100.222 15.926 99.8509 15.926H90.9139C90.5429 15.926 90.3159 16.123 90.2439 16.475L89.8619 18.566C89.7799 18.918 89.9549 19.115 90.3259 19.115H94.8099L94.4399 21.217C94.3569 21.734 94.0679 21.993 93.4899 21.993H87.7599C86.4709 21.993 86.0799 21.89 86.0799 21.113C86.0799 20.937 86.1099 20.709 86.1619 20.44L86.7599 16.971C86.8419 16.454 86.4199 15.926 85.8939 15.926H83.2449ZM88.2459 8.875C88.2617 8.78521 88.3087 8.70387 88.3786 8.64533C88.4485 8.58679 88.5368 8.5548 88.6279 8.555H97.6379C100.142 8.555 101.379 8.999 101.152 10.956L101.059 11.971C101.041 12.1351 100.962 12.2865 100.838 12.3957C100.714 12.5048 100.554 12.5637 100.389 12.561H88.0609C88.0044 12.5605 87.9487 12.5477 87.8976 12.5236C87.8465 12.4994 87.8013 12.4644 87.765 12.4211C87.7288 12.3777 87.7024 12.327 87.6877 12.2724C87.673 12.2178 87.6704 12.1607 87.6799 12.105L88.2459 8.875ZM122.891 11.96C122.873 12.1251 122.795 12.2778 122.671 12.3886C122.547 12.4994 122.387 12.5605 122.221 12.56H111.294C109.686 12.56 109.336 12.81 109.088 14.155L107.996 20.388C107.944 20.668 107.913 20.885 107.913 21.061C107.913 21.838 108.336 21.983 109.624 21.983H115.325C115.892 21.983 116.191 21.734 116.273 21.206L116.654 19.104H112.181C111.81 19.104 111.634 18.908 111.717 18.556L112.078 16.443C112.16 16.092 112.377 15.895 112.748 15.895H121.674C122.046 15.895 122.221 16.092 122.138 16.444L121.138 22.076C120.623 25.016 120.19 25.99 116.407 25.99H106.151C103.718 25.99 102.563 25.14 102.563 23.194C102.563 22.821 102.615 22.418 102.687 21.994L104.357 12.52C104.821 9.734 105.584 8.533 109.202 8.533H119.458C121.963 8.533 123.2 9.103 122.973 11.06L122.88 11.95L122.891 11.96Z" fill="#F0F2F5"/>
<path d="M70.721 11.701C70.257 11.639 69.814 11.215 69.907 10.739L70.01 10.293C70.03 10.2 70.072 10.034 70.123 9.962C70.257 9.745 70.463 9.641 70.763 9.61L73.123 9.258C77.195 8.958 76.762 6.97 77.36 5.438L78.298 2.6C78.38 2.216 78.618 1.999 79.029 1.999H79.741C80.153 1.999 80.37 2.216 80.287 2.599L80.122 5.489C79.916 7.766 80.142 8.791 82.482 9.112L85.049 9.63C85.049 9.63 85.771 9.744 85.668 10.385L85.513 11.11C85.4878 11.2583 85.4108 11.3929 85.2955 11.4896C85.1803 11.5863 85.0344 11.6389 84.884 11.638L82.369 11.959C79.999 12.177 79.359 11.929 78.576 14.838L77.566 18.472C77.514 18.855 77.246 19.072 76.834 19.072H75.834C75.422 19.072 75.226 18.855 75.288 18.472L75.576 14.931C75.7 12.663 74.896 12.332 72.927 12.063L70.711 11.69L70.721 11.7V11.701Z" fill="#F6AF16"/>
</svg>
