<?xml version="1.0" encoding="UTF-8"?>
<svg xmlns="http://www.w3.org/2000/svg" xmlns:xlink="http://www.w3.org/1999/xlink" width="150px" height="150px" viewBox="0 0 23 23" version="1.1">
<g id="surface1">
<path style=" stroke:none;fill-rule:nonzero;fill:rgb(0%,0%,0%);fill-opacity:1;" d="M 1.640625 3.792969 C 0.59375 4.210938 0.0820312 5.402344 0.5 6.449219 L 6.554688 21.644531 C 6.972656 22.691406 8.160156 23.203125 9.207031 22.785156 L 17.753906 19.378906 C 18.804688 18.960938 19.316406 17.773438 18.898438 16.726562 L 12.84375 1.53125 C 12.425781 0.480469 11.238281 -0.03125 10.1875 0.386719 Z M 1.640625 3.792969 "/>
<path style=" stroke:none;fill-rule:nonzero;fill:rgb(0%,0%,0%);fill-opacity:1;" d="M 18.300781 11.535156 L 18.265625 3.324219 C 18.261719 2.195312 17.34375 1.28125 16.214844 1.285156 L 14.21875 1.296875 Z M 18.300781 11.535156 "/>
<path style=" stroke:none;fill-rule:nonzero;fill:rgb(0%,0%,0%);fill-opacity:1;" d="M 19.433594 14.296875 L 22.683594 6.753906 C 23.128906 5.71875 22.648438 4.515625 21.613281 4.070312 L 19.78125 3.28125 Z M 19.433594 14.296875 "/>
</g>
</svg>
